# xmcd
#
# Track frame offsets: 
#        150
#        18005
#        32406
#        56316
#        72782
#        90795
#        108090
#        122445
#        144899
#        164742
#        181592
#        200505
#
# Disc length: 2870 seconds
#
# Revision: 0
# Processed by: cddbd v1.5.2PL0 Copyright (c) Steve Scherf et al.
# Submitted via: ExactAudioCopy v0.99pb5
#
DISCID=820b340c
DTITLE=Macy Gray - I try
DYEAR=2008
DGENRE=
TTITLE0=i try
TTITLE1=why didn´t you call me
TTITLE2=i can´t wait to meetchu
TTITLE3=freak like me
TTITLE4=a moment to myself
TTITLE5=sweet baby
TTITLE6=harry
TTITLE7=do somethink
TTITLE8=boo
TTITLE9=when i see you
TTITLE10=she ain´t right for you
TTITLE11=screamin´
EXTD=
EXTT0=
EXTT1=
EXTT2=
EXTT3=
EXTT4=
EXTT5=
EXTT6=
EXTT7=
EXTT8=
EXTT9=
EXTT10=
EXTT11=
PLAYORDER=
